<svg xmlns="http://www.w3.org/2000/svg" viewBox="0 0 111.65 282.01">
  <path d="M56.71 0c23.4 0 43.11 10.27 50.87 20.29L105.14 22C98.53 12 79.48 5.4 56.71 5.4S14.43 12.2 8 22.36l-2.42-1.72C13.14 10.43 33.32 0 56.71 0Z" style="fill:#de4b47;fill-rule:evenodd"/>
  <path d="M8.16 24.24S1.91 10.82 46.67 4.69c16.2-1.17 40.49.12 55.13 11.9 4.12 4.24 3.27 6.59 3.27 6.59L84 31 8.16 24.24Z" style="fill:#c9292f;stroke:#231f20;stroke-miterlimit:22.925600000000003;stroke-width:.216px;fill-rule:evenodd"/>
  <path d="M4.33 40.29h102.99v235.59H4.33V40.29z" style="fill:#c9292f;fill-rule:evenodd"/>
  <path d="M18.34 55.7h74.97v193.82H18.34V55.7z" style="fill:#43525a;fill-rule:evenodd"/>
  <path d="M90 55.7h3.29v100.64c-6.59 7.33-13.46 12.77-19.92 13.85-20.51 3.42-48.64 36.47-50.65 79.34h-4.4V128.59c36.88-14.53 58.36-27 66.33-61A34.2 34.2 0 0 1 90 55.7Z" style="fill:#647074;fill-rule:evenodd"/>
  <path d="M28.77 52.05h3.25v201.12h-3.25V52.05z" style="fill:#c9292f;fill-rule:evenodd"/>
  <path d="M82.42 127.99h10.97v23.76H82.42v-23.76z" style="fill:#de4b47;fill-rule:evenodd"/>
  <path d="M15.88 78.81v-3.24H95.2v3.24H15.88z" style="fill:#c9292f;fill-rule:evenodd"/>
  <path d="M15.88 76.17v-.6H95.2v.6H15.88z" style="fill:#de4b47;fill-rule:evenodd"/>
  <path d="M15.88 104v-3.24H95.2V104Z" style="fill:#c9292f;fill-rule:evenodd"/>
  <path d="M15.88 101.39v-.6H95.2v.6Z" style="fill:#de4b47;fill-rule:evenodd"/>
  <path d="M15.88 129.25V126H95.2v3.25Z" style="fill:#c9292f;fill-rule:evenodd"/>
  <path d="M15.88 126.6v-.6H95.2v.6Z" style="fill:#de4b47;fill-rule:evenodd"/>
  <path d="M15.88 154.47v-3.25H95.2v3.25Z" style="fill:#c9292f;fill-rule:evenodd"/>
  <path d="M15.88 151.82v-.6H95.2v.6Z" style="fill:#de4b47;fill-rule:evenodd"/>
  <path d="M15.88 179.69v-3.25H95.2v3.25Z" style="fill:#c9292f;fill-rule:evenodd"/>
  <path d="M15.88 177v-.6H95.2v.6Z" style="fill:#de4b47;fill-rule:evenodd"/>
  <path d="M15.88 204.91v-3.25H95.2v3.25Z" style="fill:#c9292f;fill-rule:evenodd"/>
  <path d="M15.88 202.26v-.6H95.2v.6Z" style="fill:#de4b47;fill-rule:evenodd"/>
  <path d="M15.88 230.13v-3.25H95.2v3.25H15.88z" style="fill:#c9292f;fill-rule:evenodd"/>
  <path d="M15.88 227.48v-.6H95.2v.6H15.88z" style="fill:#de4b47;fill-rule:evenodd"/>
  <path d="M79.63 52.05h3.25v201.12h-3.25V52.05z" style="fill:#c9292f;fill-rule:evenodd"/>
  <path d="M10.76 40.29h.59v235.59h-.59V40.29zM101.02 40.29h.59v235.59h-.59V40.29z" style="fill:#a42c31;fill-rule:evenodd"/>
  <path d="M0 282h111.65v-6.27a2.1 2.1 0 0 0-2.09-2.1H2.09A2.1 2.1 0 0 0 0 275.74V282Z" style="fill:#231f20;fill-rule:evenodd"/>
  <path d="M111.65 277.32v-1.58a2.1 2.1 0 0 0-2.09-2.1H2.09a2.1 2.1 0 0 0-2.09 2.1v1.58a2.1 2.1 0 0 1 2.09-2.09h107.47a2.1 2.1 0 0 1 2.09 2.09Z" style="fill:#808285;fill-rule:evenodd"/>
  <path d="M15.77 252h79.5v-2.77h-79.5V252z" style="fill:#c9292f;fill-rule:evenodd"/>
  <path d="M15.77 252h79.5v.79h-79.5V252z" style="fill:#a42c31;fill-rule:evenodd"/>
  <path d="M15.77 249.23h79.5v.47h-79.5v-.47z" style="fill:#de4b47;fill-rule:evenodd"/>
  <path d="M16.32 55.41v196.6h2.77V55.41h-2.77z" style="fill:#c9292f;fill-rule:evenodd"/>
  <path d="M16.32 52.56v200.2h-.8V52.56h.8z" style="fill:#a42c31;fill-rule:evenodd"/>
  <path d="M19.09 55.68v194.04h-.47V54.87l.47.81z" style="fill:#de4b47;fill-rule:evenodd"/>
  <path d="M16.32 54.87h78.94V52.1H16.32v2.77z" style="fill:#c9292f;fill-rule:evenodd"/>
  <path d="m18.66 54.89 73.51-.02v.8H19.06l-.4-.78z" style="fill:#a42c31;fill-rule:evenodd"/>
  <path d="M15.54 52.1h79.72v.48H15.54v-.48z" style="fill:#de4b47;fill-rule:evenodd"/>
  <path d="M94.47 55.66v195.5H91.7V55.66h2.77z" style="fill:#c9292f;fill-rule:evenodd"/>
  <path d="M94.47 52.58v200.23h.8V52.58h-.8z" style="fill:#a42c31;fill-rule:evenodd"/>
  <path d="M91.7 55.68v194.04h.47V55.41l-.47.27z" style="fill:#de4b47;fill-rule:evenodd"/>
  <path d="M98.26 132.75a2.61 2.61 0 0 1 2.6 2.6v9.32a2.61 2.61 0 0 1-2.6 2.6 2.61 2.61 0 0 1-2.61-2.6v-9.32a2.61 2.61 0 0 1 2.61-2.6Z" style="fill:#849daa;fill-rule:evenodd"/>
  <path d="M98.26 133.19a2.13 2.13 0 0 1 2.12 2.12v8.58a2.13 2.13 0 0 1-2.12 2.11 2.12 2.12 0 0 1-2.12-2.12v-8.58a2.13 2.13 0 0 1 2.12-2.12Z" style="fill:#43525a;fill-rule:evenodd"/>
  <path d="M100.38 143.89v.42a2.13 2.13 0 0 1-2.12 2.11 2.12 2.12 0 0 1-2.12-2.11v-.42a2.12 2.12 0 0 0 2.12 2.11 2.13 2.13 0 0 0 2.12-2.12Z" style="fill:#a5c3d2;fill-rule:evenodd"/>
  <path d="M98.25 133.11a.52.52 0 0 1 .52.52v11.83a.52.52 0 0 1-.52.52.52.52 0 0 1-.52-.52v-11.83a.52.52 0 0 1 .52-.52Z" style="fill:#849daa;fill-rule:evenodd"/>
  <path d="M98.25 133.11a.52.52 0 0 1 .52.52v.27a.52.52 0 0 0-.52-.52.52.52 0 0 0-.52.52v-.27a.52.52 0 0 1 .52-.52ZM98.25 146a.52.52 0 0 0 .52-.52v-.27a.52.52 0 0 1-.52.52.52.52 0 0 1-.52-.52v.27a.52.52 0 0 0 .52.52Z" style="fill:#a5c3d2;fill-rule:evenodd"/>
  <path d="M3.87 37.34h103.91v3.37H3.87v-3.37z" style="fill:#c9292f;fill-rule:evenodd"/>
  <path d="M3.87 42.06h103.91v-1.35H3.87v1.35z" style="fill:#a42c31;fill-rule:evenodd"/>
  <path d="M3.87 37.34h103.91v.99H3.87v-.99z" style="fill:#de4b47;fill-rule:evenodd"/>
  <path d="M7.61 22.21h97.45v15.11H7.61V22.21z" style="fill:#c9292f;fill-rule:evenodd"/>
  <path d="M56.71 3.13c23.26 0 43.11 7.14 50.87 17.16L105.14 22C98.53 12 79.48 5.4 56.71 5.4S14.43 12.2 8 22.36l-2.42-1.72c7.56-10.21 27.6-17.51 51.13-17.51Z" style="fill:#a42c31;fill-rule:evenodd"/>
  <path d="M19.86 21.06H92.7v13.63H19.86V21.06z" style="fill:#d1d3d4;fill-rule:evenodd"/>
  <path d="M19.86 21.06H92.7v5.01H19.86v-5.01z" style="fill:#bcbec0;fill-rule:evenodd"/>
  <path d="M17.99 34.9v-3.24h75.39v3.24H17.99z" style="fill:#c9292f;fill-rule:evenodd"/>
  <path d="M19.49 32.26v-.6H92.8v.6H19.49z" style="fill:#de4b47;fill-rule:evenodd"/>
  <path d="M17.48 34.56v-.53h77.18v.53H17.48z" style="fill:#a42c31;fill-rule:evenodd"/>
  <path d="M17.48 34.13v-.1h77.18v.1H17.48zM19.49 21.05v-.52h73.62v.52H19.49z" style="fill:#a42c31;fill-rule:evenodd"/>
  <path d="M19.49 20.62v-.09h73.62v.09H19.49z" style="fill:#a42c31;fill-rule:evenodd"/>
  <path d="M17.47 19.1v-.6h77.14v.6H17.47z" style="fill:#de4b47;fill-rule:evenodd"/>
  <path d="M94.18 34.01V18.5h.43v15.51h-.43z" style="fill:#de4b47;fill-rule:evenodd"/>
  <path d="M92.67 32.22V20.53h.44v11.69h-.44z" style="fill:#a42c31;fill-rule:evenodd"/>
  <path d="M92.67 22.68v-2.15h.44v2.15h-.44z" style="fill:#a42c31;fill-rule:evenodd"/>
  <path d="M19.49 32.3V21.08h.44V32.3h-.44z" style="fill:#de4b47;fill-rule:evenodd"/>
  <path d="M17.48 34.29V18.53h.44v15.76h-.44z" style="fill:#a42c31;fill-rule:evenodd"/>
  <path d="M24.21 23.32h-1.75a.55.55 0 0 0-.35.07.43.43 0 0 0-.08.31v.54h-.55v-1.32h6.6v1.35h-.55v-.54c0-.17 0-.27-.07-.31a.55.55 0 0 0-.35-.07H25.3V29.49c0 .19 0 .31.1.36s.18.09.38.1h.57v.31h-3.22V30h.57c.2 0 .33 0 .38-.1s.09-.17.1-.36V23.32Zm10.94 7h-5.53V30H30.06c.2 0 .33 0 .38-.1s.09-.17.1-.36v-5.82c0-.19 0-.31-.1-.36s-.18-.09-.38-.1H29.62v-.31h5.25v1.29h-.58v-.51a.29.29 0 0 0-.38-.37h-2.24v2.94h1.73a.57.57 0 0 0 .29-.05s.06-.11.07-.23 0-.13 0-.23v-.09h.41v1.62h-.41v-.09c0-.25-.06-.4-.13-.45a1.25 1.25 0 0 0-.58-.07h-1.4V29c0 .39 0 .63.14.72a1.22 1.22 0 0 0 .74.14H34.08c.29 0 .44-.12.46-.35v-.54h.57v1.35Zm7.1 0h-5.5V30H37.19c.2 0 .33 0 .38-.1s.09-.17.11-.36v-5.82c0-.19 0-.31-.11-.36s-.18-.09-.38-.1H36.75v-.31h3v.31H39.29a.56.56 0 0 0-.37.1.59.59 0 0 0-.1.36V29c0 .44 0 .69.1.76s.33.1.79.1h.78a3.31 3.31 0 0 0 1-.09.36.36 0 0 0 .25-.35v-.6h.54v1.47Zm7.07 0h-5.54V30H44.23a.6.6 0 0 0 .38-.1.59.59 0 0 0 .1-.36v-5.82a.59.59 0 0 0-.1-.36.6.6 0 0 0-.38-.1H43.78v-.31H49v1.29h-.57v-.51a.53.53 0 0 0-.06-.31.55.55 0 0 0-.32-.06h-2.22v2.94h1.73a.54.54 0 0 0 .29-.05s.06-.11.07-.23 0-.13 0-.23v-.09h.42v1.62h-.42v-.09q0-.37-.12-.45a1.31 1.31 0 0 0-.58-.07h-1.39V29a1.16 1.16 0 0 0 .14.72 1.26 1.26 0 0 0 .74.14H48.26c.29 0 .44-.12.46-.35v-.54h.58v1.35ZM53 27.21V29.49a.67.67 0 0 0 .1.36c.05.06.18.09.38.1H54v.31h-3.09V30H51.35a.6.6 0 0 0 .38-.1.59.59 0 0 0 .1-.36v-5.82a.59.59 0 0 0-.1-.36.6.6 0 0 0-.38-.1H50.9v-.31h3.4c1.5 0 2.24.65 2.24 1.95q0 2.37-3.27 2.37Zm0-.34h.39a1.8 1.8 0 0 0 2.06-2 1.65 1.65 0 0 0-.45-1.25 1.92 1.92 0 0 0-1.31-.36H53v3.61Zm7.21-.2V29.49a.67.67 0 0 0 .1.36.6.6 0 0 0 .38.1L61 30h.1v.31h-3V30H58.55a.6.6 0 0 0 .38-.1.59.59 0 0 0 .1-.36v-5.82a.59.59 0 0 0-.1-.36.6.6 0 0 0-.38-.1H58.1v-.31h3v.31H60.65a.6.6 0 0 0-.38.1.67.67 0 0 0-.1.36v2.49h3.65v-2.49a.59.59 0 0 0-.1-.36c0-.06-.18-.09-.38-.1H62.9v-.31h3v.31H65.44a.62.62 0 0 0-.38.1.61.61 0 0 0-.09.36V29.49a.61.61 0 0 0 .09.36.62.62 0 0 0 .38.1H65.9v.31h-3V30H63.35a.47.47 0 0 0 .42-.19 2 2 0 0 0 .09-.76v-2.38Zm11.12 3.79a3.32 3.32 0 0 1-2.58-1 4 4 0 0 1-1-2.82 4 4 0 0 1 1-2.83 3.85 3.85 0 0 1 5.24 0 3.94 3.94 0 0 1 1 2.82 4 4 0 0 1-1 2.84 3.46 3.46 0 0 1-2.67 1Zm0-.34a2.09 2.09 0 0 0 1.83-.93 4.52 4.52 0 0 0 .64-2.61 4.46 4.46 0 0 0-.68-2.58 2.17 2.17 0 0 0-3.58 0 4.51 4.51 0 0 0-.65 2.59 4.5 4.5 0 0 0 .65 2.58 2 2 0 0 0 1.75.94Zm11.67.26-4.76-6.16V29a2 2 0 0 0 .09.76.47.47 0 0 0 .42.19H79.2v.31h-2.41V30H77.24a.47.47 0 0 0 .42-.19 1.92 1.92 0 0 0 .1-.76v-4.84a1.92 1.92 0 0 0-.1-.76.47.47 0 0 0-.42-.19H76.79v-.31h1.73l4.38 5.71v-4.94a.52.52 0 0 0-.11-.36c-.05-.06-.18-.09-.38-.1H81.97v-.31h2.39v.31H83.91a.6.6 0 0 0-.38.1.59.59 0 0 0-.1.36v6.66Zm8.43-.1h-5.54V30h.45c.21 0 .33 0 .38-.1s.09-.17.11-.36v-5.82c0-.19 0-.31-.11-.36s-.17-.09-.38-.1H85.9v-.31h5.25v1.29h-.57v-.51a.45.45 0 0 0-.07-.31.49.49 0 0 0-.31-.06h-2.26v2.94h1.73a.57.57 0 0 0 .33-.1s0-.11 0-.2v-.32h.42v1.62H90v-.09c0-.25-.06-.4-.13-.45a1.22 1.22 0 0 0-.57-.07h-1.36V29a1.16 1.16 0 0 0 .14.72 1.24 1.24 0 0 0 .74.14H90.37c.29 0 .44-.12.46-.35v-.54h.58v1.35Z" style="fill:#58595b"/>
  <path d="M56.48 9.29A6.27 6.27 0 0 1 61 8.52c2.57.86.62 5.63-.72 6.83h-7.55c-1.31-1.16-3.3-6-.76-6.8a7 7 0 0 1 4.51.74Z" style="fill:#ccb388;fill-rule:evenodd"/>
  <path d="M52.73 15.05h7.51v1.29h-7.51v-1.29zM56.43 7.75a.68.68 0 1 1-.68.68.68.68 0 0 1 .68-.68Z" style="fill:#ccb388;fill-rule:evenodd"/>
</svg>
